HIERARCHY
ROOT hip
{
	OFFSET 0.000000 0.000000 0.000000 
	CHANNELS 6 Xposition Yposition Zposition Xrotation Zrotation Yrotation
	JOINT abdomen
	{
		OFFSET 0.000000 3.402643 0.000000 
		CHANNELS 3 Xrotation Zrotation Yrotation
		JOINT chest
		{
			OFFSET 0.000000 8.438565 -0.680529 
			CHANNELS 3 Xrotation Zrotation Yrotation
			JOINT neck
			{
				OFFSET 0.000000 10.207942 -0.272212 
				CHANNELS 3 Xrotation Zrotation Yrotation
				JOINT head
				{
					OFFSET 0.000000 3.130431 0.000000 
					CHANNELS 3 Xrotation Zrotation Yrotation
					End Site
					{
						OFFSET 0.000000 3.130435 0.000000 
					}
				}
			}
			JOINT lCollar
			{
				OFFSET 3.470700 6.669187 -0.816635 
				CHANNELS 3 Yrotation Zrotation Xrotation
				JOINT lShldr
				{
					OFFSET 3.198488 0.000000 0.000000 
					CHANNELS 3 Zrotation Yrotation Xrotation
					JOINT lForeArm
					{
						OFFSET 10.139888 0.000000 0.000000 
						CHANNELS 3 Yrotation Zrotation Xrotation
						JOINT lHand
						{
							OFFSET 8.370511 0.000000 0.000000 
							CHANNELS 3 Zrotation Yrotation Xrotation
							End Site
							{
								OFFSET 4.083176 0.000000 0.000000 
							}
						}
					}
				}
			}
			JOINT rCollar
			{
				OFFSET -3.470700 6.669187 -0.816635 
				CHANNELS 3 Yrotation Zrotation Xrotation
				JOINT rShldr
				{
					OFFSET -3.198488 0.000000 0.000000 
					CHANNELS 3 Zrotation Yrotation Xrotation
					JOINT rForeArm
					{
						OFFSET -10.139888 0.000000 0.000000 
						CHANNELS 3 Yrotation Zrotation Xrotation
						JOINT rHand
						{
							OFFSET -8.370511 0.000000 0.000000 
							CHANNELS 3 Zrotation Yrotation Xrotation
							End Site
							{
								OFFSET -4.083176 0.000000 0.000000 
							}
						}
					}
				}
			}
		}
	}
	JOINT lThigh
	{
		OFFSET 5.308129 -1.633274 1.361059 
		CHANNELS 3 Xrotation Zrotation Yrotation
		JOINT lShin
		{
			OFFSET -2.041588 -20.007561 0.000000 
			CHANNELS 3 Xrotation Zrotation Yrotation
			JOINT lFoot
			{
				OFFSET 0.000000 -19.190928 -1.224953 
				CHANNELS 3 Xrotation Yrotation Zrotation
				End Site
				{
					OFFSET 0.000000 -2.449906 4.627600 
				}
			}
		}
	}
	JOINT rThigh
	{
		OFFSET -5.308129 -1.633274 1.361059 
		CHANNELS 3 Xrotation Zrotation Yrotation
		JOINT rShin
		{
			OFFSET 2.041588 -20.007561 0.000000 
			CHANNELS 3 Xrotation Zrotation Yrotation
			JOINT rFoot
			{
				OFFSET 0.000000 -19.190928 -1.224953 
				CHANNELS 3 Xrotation Yrotation Zrotation
				End Site
				{
					OFFSET 0.000000 -2.449906 4.627600 
				}
			}
		}
	}
}
MOTION
Frames: 6
Frame Time: 0.033333
-62.751965 52.333118 66.193863 3.867188 -1.767578 -29.678032 21.108009 -9.602831 -6.117268 -16.669922 15.527344 8.144533 51.063168 8.107644 2.471410 -57.958984 3.203125 -12.333439 2.000000 -2.000000 0.000000 -89.892578 9.042969 14.425364 -40.912590 -2.125654 -1.779254 -24.315758 46.914703 -23.673059 -2.000000 2.000000 0.000000 95.712891 -23.212889 -7.441407 54.054905 1.466633 -2.052994 -18.926508 -54.191456 25.106516 18.374401 9.606442 0.152756 20.247509 -4.891153 -1.965886 10.450811 4.601069 2.965111 -8.781301 2.552701 -30.861008 2.723102 5.211693 0.415976 8.633077 -13.514641 -4.878191 
-63.990368 52.750656 66.977966 4.042969 -2.470703 -29.912287 21.210255 -10.122190 -5.568440 -16.679688 15.351563 8.459617 51.063168 8.107644 2.471410 -58.740234 4.472655 -13.603516 2.000000 -2.000000 0.000000 -89.892578 9.042969 14.425364 -40.736286 -2.124515 -1.759763 -24.491072 47.066013 -23.993685 -2.000000 2.000000 0.000000 96.113281 -20.849607 -9.105036 54.230965 1.457452 -2.063307 -19.273792 -53.318993 24.926497 12.162451 11.644089 1.113098 32.031342 -4.384030 -2.863113 10.947370 6.496028 3.016541 -6.058456 4.385248 -29.898207 0.604616 5.369404 0.198183 11.521614 -15.182517 -4.324104 
-65.144188 52.923969 67.985748 4.042969 -2.988281 -30.303240 21.464077 -10.718022 -4.873182 -16.513672 15.166017 8.820915 51.063168 8.107644 2.471410 -60.351566 4.062500 -15.029299 2.000000 -2.000000 0.000000 -89.970703 9.355469 14.620728 -40.736286 -2.124515 -1.759763 -24.283699 46.992031 -24.367447 -2.000000 2.000000 0.000000 95.371094 -18.574219 -10.019530 54.230976 1.447703 -2.063874 -19.255949 -52.331757 24.360567 5.876694 13.483503 1.270226 41.883331 -3.961942 -3.544496 12.262259 8.638229 2.200018 -4.133635 5.380148 -29.998419 0.814819 5.418318 0.050060 10.627875 -14.414332 -4.044256 
-66.375893 53.026390 69.067711 4.042969 -3.359375 -30.684170 21.692303 -11.397296 -4.013515 -16.533201 14.824219 9.094296 51.063168 8.107644 2.471410 -62.578125 2.666016 -16.288610 2.000000 -2.000000 0.000000 -89.960938 9.414063 14.804688 -40.912590 -2.125654 -1.779254 -23.799673 46.764179 -23.699091 -2.000000 2.000000 0.000000 92.939453 -16.884766 -9.338772 54.230976 1.447703 -2.063874 -18.510889 -51.320503 22.889681 0.634524 15.926161 2.322475 47.656109 -3.484512 -3.846100 14.046648 8.166254 1.152515 -1.429757 6.588148 -30.174297 -0.395840 5.419028 -0.365419 10.074385 -13.341199 -4.409347 
-67.577728 53.152447 70.102913 3.857422 -3.173828 -31.709526 21.916258 -12.073431 -3.161712 -16.562500 14.482422 9.365234 51.063168 8.107644 2.471410 -64.492188 0.761719 -17.285158 2.000000 -2.000000 0.000000 -89.931641 9.238281 14.650008 -41.440479 -2.117045 -1.799315 -22.693928 46.794334 -22.113678 -2.000000 2.000000 0.000000 89.707031 -14.980470 -7.832032 54.230743 1.427636 -2.055263 -17.959398 -49.707790 22.317648 -5.047680 18.704945 2.340316 52.073753 -3.712557 -4.197161 16.765385 8.511832 -0.699414 0.657355 6.998079 -30.726521 -1.097163 5.422434 0.062388 9.218218 -12.045307 -4.646192 
-68.787560 53.278496 70.966629 3.339844 -2.470703 -33.398632 22.311855 -12.746344 -2.317442 -16.591799 14.130859 9.628906 51.063168 8.107644 2.471410 -65.878906 -0.986328 -17.861326 2.000000 -2.000000 0.000000 -89.951172 9.296875 14.667970 -41.968369 -2.108435 -1.819376 -21.564930 46.756733 -20.065413 -2.000000 2.000000 0.000000 86.748047 -13.056642 -5.998300 54.230743 1.427636 -2.055263 -17.328260 -48.914726 21.484327 -9.479332 19.884968 3.395513 53.644634 -3.273545 -4.256574 18.531590 8.878305 -1.958581 2.324967 6.813039 -30.273468 -0.765132 5.419817 0.100529 8.833410 -11.475451 -5.979891 
